<svg width="125" height="17" viewBox="0 0 125 17" fill="none" xmlns="http://www.w3.org/2000/svg">
<path d="M0 17V2.24588e-06H4.79645V1.8599H2.30867V15.1468H4.79645V17H0Z" fill="#8C8C8C"/>
<path d="M19.4376 6.02794C19.327 5.66667 19.1744 5.34331 18.9798 5.05785C18.7896 4.76794 18.5597 4.5204 18.2899 4.31523C18.0245 4.11006 17.7193 3.95619 17.3744 3.8536C17.0294 3.74656 16.6535 3.69304 16.2466 3.69304C15.5168 3.69304 14.8667 3.87813 14.2962 4.24833C13.7256 4.61852 13.2767 5.16267 12.9494 5.88076C12.6266 6.59439 12.4651 7.46412 12.4651 8.48997C12.4651 9.52473 12.6266 10.4012 12.9494 11.1192C13.2723 11.8373 13.7212 12.3837 14.2962 12.7584C14.8711 13.1286 15.5389 13.3137 16.2996 13.3137C16.9896 13.3137 17.5867 13.1799 18.0909 12.9122C18.5995 12.6446 18.9909 12.2655 19.2651 11.7749C19.5393 11.2798 19.6764 10.7 19.6764 10.0354L20.2337 10.1224H16.5451V8.18221H22.058V9.82802C22.058 11.0011 21.8104 12.0157 21.315 12.8721C20.8197 13.7285 20.1386 14.3886 19.2717 14.8524C18.4049 15.3118 17.4098 15.5415 16.2864 15.5415C15.0347 15.5415 13.9357 15.2583 12.9892 14.6919C12.0472 14.121 11.3108 13.3114 10.7801 12.2633C10.2538 11.2107 9.99062 9.96183 9.99062 8.51673C9.99062 7.4106 10.1454 6.42267 10.455 5.55293C10.769 4.6832 11.2069 3.94504 11.7686 3.33845C12.3302 2.72741 12.9892 2.26355 13.7455 1.94687C14.5018 1.62574 15.3244 1.46517 16.2134 1.46517C16.9653 1.46517 17.6663 1.57668 18.3164 1.79969C18.9666 2.01824 19.5437 2.33045 20.0479 2.73633C20.5565 3.1422 20.9745 3.6239 21.3018 4.18143C21.629 4.73895 21.8435 5.35446 21.9453 6.02794H19.4376Z" fill="#2E765E"/>
<path d="M23.8648 15.3542V5.07792H26.1934V6.79064H26.2996C26.4853 6.19743 26.8037 5.74026 27.2549 5.41913C27.7104 5.09353 28.2301 4.93074 28.8139 4.93074C28.9466 4.93074 29.0947 4.93743 29.2584 4.95081C29.4264 4.95973 29.5657 4.97534 29.6763 4.99764V7.2255C29.5746 7.18982 29.4132 7.1586 29.192 7.13184C28.9753 7.10062 28.7652 7.08501 28.5618 7.08501C28.1239 7.08501 27.7303 7.1809 27.3809 7.37269C27.0359 7.56002 26.7639 7.82094 26.5649 8.15545C26.3659 8.48997 26.2664 8.87577 26.2664 9.31287V15.3542H23.8648Z" fill="#2E765E"/>
<path d="M34.8964 15.5549C33.8747 15.5549 32.9924 15.3408 32.2493 14.9126C31.5108 14.48 30.9424 13.869 30.5444 13.0795C30.1463 12.2856 29.9473 11.3512 29.9473 10.2763C29.9473 9.21921 30.1463 8.29149 30.5444 7.49311C30.9469 6.69028 31.5085 6.06586 32.2294 5.61984C32.9503 5.16936 33.7973 4.94412 34.7703 4.94412C35.3983 4.94412 35.991 5.0467 36.5482 5.25187C37.1099 5.45258 37.6053 5.76479 38.0343 6.18851C38.4677 6.61223 38.8083 7.15191 39.0559 7.80756C39.3036 8.45875 39.4274 9.23482 39.4274 10.1358V10.8784H31.0751V9.24597H37.1254C37.121 8.78211 37.0215 8.36954 36.8269 8.00827C36.6323 7.64253 36.3603 7.35485 36.0109 7.14522C35.6659 6.93559 35.2634 6.83078 34.8035 6.83078C34.3126 6.83078 33.8813 6.9512 33.5098 7.19205C33.1383 7.42844 32.8486 7.74066 32.6408 8.12869C32.4373 8.51227 32.3334 8.93375 32.329 9.39315V10.8182C32.329 11.4158 32.4373 11.9288 32.654 12.3569C32.8707 12.7807 33.1737 13.1063 33.5629 13.3337C33.9521 13.5567 34.4076 13.6682 34.9295 13.6682C35.2789 13.6682 35.5951 13.6192 35.8782 13.5211C36.1613 13.4185 36.4067 13.2691 36.6146 13.0728C36.8225 12.8766 36.9795 12.6335 37.0856 12.3436L39.3279 12.5978C39.1864 13.1955 38.9166 13.7173 38.5186 14.1633C38.1249 14.6049 37.6208 14.9483 37.006 15.1936C36.3912 15.4345 35.688 15.5549 34.8964 15.5549Z" fill="#2E765E"/>
<path d="M45.5033 15.5549C44.4816 15.5549 43.5993 15.3408 42.8563 14.9126C42.1177 14.48 41.5494 13.869 41.1513 13.0795C40.7533 12.2856 40.5542 11.3512 40.5542 10.2763C40.5542 9.21921 40.7533 8.29149 41.1513 7.49311C41.5538 6.69028 42.1155 6.06586 42.8364 5.61984C43.5573 5.16936 44.4042 4.94412 45.3772 4.94412C46.0053 4.94412 46.5979 5.0467 47.1552 5.25187C47.7169 5.45258 48.2122 5.76479 48.6412 6.18851C49.0746 6.61223 49.4152 7.15191 49.6629 7.80756C49.9105 8.45875 50.0344 9.23482 50.0344 10.1358V10.8784H41.682V9.24597H47.7323C47.7279 8.78211 47.6284 8.36954 47.4338 8.00827C47.2392 7.64253 46.9672 7.35485 46.6178 7.14522C46.2728 6.93559 45.8704 6.83078 45.4104 6.83078C44.9195 6.83078 44.4883 6.9512 44.1168 7.19205C43.7452 7.42844 43.4556 7.74066 43.2477 8.12869C43.0442 8.51227 42.9403 8.93375 42.9359 9.39315V10.8182C42.9359 11.4158 43.0442 11.9288 43.261 12.3569C43.4777 12.7807 43.7806 13.1063 44.1698 13.3337C44.559 13.5567 45.0146 13.6682 45.5364 13.6682C45.8858 13.6682 46.2021 13.6192 46.4851 13.5211C46.7682 13.4185 47.0136 13.2691 47.2215 13.0728C47.4294 12.8766 47.5864 12.6335 47.6925 12.3436L49.9349 12.5978C49.7933 13.1955 49.5235 13.7173 49.1255 14.1633C48.7319 14.6049 48.2277 14.9483 47.6129 15.1936C46.9982 15.4345 46.2949 15.5549 45.5033 15.5549Z" fill="#2E765E"/>
<path d="M54.0006 9.33294V15.3542H51.599V5.07792H53.8944V6.82409H54.0138C54.2482 6.24872 54.622 5.79155 55.135 5.45258C55.6525 5.11361 56.2915 4.94412 57.0522 4.94412C57.7555 4.94412 58.368 5.09577 58.8899 5.39906C59.4162 5.70235 59.8231 6.14168 60.1106 6.71704C60.4025 7.29241 60.5462 7.99042 60.5418 8.8111V15.3542H58.1402V9.18576C58.1402 8.49889 57.9633 7.96143 57.6095 7.5734C57.2601 7.18536 56.7758 6.99134 56.1566 6.99134C55.7365 6.99134 55.3628 7.08501 55.0355 7.27234C54.7126 7.4552 54.4583 7.72058 54.2726 8.06848C54.0912 8.41637 54.0006 8.83786 54.0006 9.33294Z" fill="#2E765E"/>
<path d="M62.6222 15.3542V1.6525H71.3262V3.73318H65.0835V7.45297H70.7291V9.53365H65.0835V15.3542H62.6222Z" fill="#2E765E"/>
<path d="M72.8494 15.3542V5.07792H75.1779V6.79064H75.2841C75.4698 6.19743 75.7883 5.74026 76.2394 5.41913C76.6949 5.09353 77.2146 4.93074 77.7984 4.93074C77.9311 4.93074 78.0792 4.93743 78.2429 4.95081C78.411 4.95973 78.5503 4.97534 78.6608 4.99764V7.2255C78.5591 7.18982 78.3977 7.1586 78.1765 7.13184C77.9598 7.10062 77.7498 7.08501 77.5463 7.08501C77.1085 7.08501 76.7148 7.1809 76.3654 7.37269C76.0205 7.56002 75.7485 7.82094 75.5494 8.15545C75.3504 8.48997 75.2509 8.87577 75.2509 9.31287V15.3542H72.8494Z" fill="#2E765E"/>
<path d="M82.5391 15.5616C81.8934 15.5616 81.3118 15.4456 80.7944 15.2137C80.2813 14.9773 79.8744 14.6294 79.5737 14.17C79.2774 13.7106 79.1292 13.1442 79.1292 12.4707C79.1292 11.8909 79.2353 11.4114 79.4476 11.0323C79.6599 10.6532 79.9496 10.3499 80.3167 10.1224C80.6838 9.89492 81.0973 9.72321 81.5573 9.60724C82.0217 9.48682 82.5015 9.39984 82.9969 9.34632C83.5939 9.28388 84.0782 9.22813 84.4497 9.17906C84.8213 9.12554 85.091 9.04526 85.2591 8.93821C85.4316 8.82671 85.5178 8.65499 85.5178 8.42306V8.38292C85.5178 7.87892 85.3697 7.48865 85.0734 7.21212C84.777 6.93559 84.3502 6.79733 83.793 6.79733C83.2047 6.79733 82.7381 6.92667 82.3932 7.18536C82.0526 7.44405 81.8226 7.74958 81.7032 8.10193L79.4609 7.7808C79.6378 7.15637 79.9297 6.63453 80.3366 6.21527C80.7435 5.79155 81.2411 5.47488 81.8293 5.26525C82.4175 5.05116 83.0676 4.94412 83.7797 4.94412C84.2706 4.94412 84.7593 5.0021 85.2458 5.11807C85.7323 5.23403 86.1768 5.42582 86.5793 5.69343C86.9818 5.95658 87.3046 6.31563 87.5479 6.77056C87.7955 7.2255 87.9194 7.79418 87.9194 8.47659V15.3542H85.6107V13.9425H85.5311C85.3851 14.228 85.1795 14.4956 84.9141 14.7454C84.6532 14.9907 84.3237 15.1892 83.9256 15.3408C83.532 15.488 83.0698 15.5616 82.5391 15.5616ZM83.1627 13.782C83.6448 13.782 84.0628 13.6861 84.4166 13.4943C84.7704 13.298 85.0424 13.0394 85.2326 12.7182C85.4272 12.3971 85.5245 12.047 85.5245 11.6678V10.4569C85.4493 10.5194 85.321 10.5773 85.1397 10.6309C84.9628 10.6844 84.7638 10.7312 84.5426 10.7714C84.3215 10.8115 84.1026 10.8472 83.8858 10.8784C83.6691 10.9096 83.4812 10.9364 83.3219 10.9587C82.9637 11.0077 82.6431 11.088 82.36 11.1995C82.0769 11.311 81.8536 11.4671 81.69 11.6678C81.5263 11.8641 81.4445 12.1183 81.4445 12.4305C81.4445 12.8766 81.6059 13.2133 81.9288 13.4408C82.2516 13.6682 82.663 13.782 83.1627 13.782Z" fill="#2E765E"/>
<path d="M89.8672 15.3542V5.07792H92.1626V6.82409H92.282C92.4943 6.23534 92.8459 5.77594 93.3368 5.44589C93.8277 5.11138 94.4137 4.94412 95.0948 4.94412C95.7848 4.94412 96.3664 5.11361 96.8396 5.45258C97.3172 5.78709 97.6534 6.24426 97.848 6.82409H97.9541C98.1797 6.25318 98.56 5.79824 99.0952 5.45927C99.6348 5.11584 100.274 4.94412 101.012 4.94412C101.95 4.94412 102.715 5.24295 103.308 5.84062C103.9 6.43828 104.197 7.31025 104.197 8.45652V15.3542H101.789V8.83117C101.789 8.19336 101.621 7.72727 101.284 7.4329C100.948 7.13407 100.537 6.98465 100.05 6.98465C99.4711 6.98465 99.0178 7.16752 98.6905 7.53326C98.3676 7.89453 98.2062 8.36508 98.2062 8.9449V15.3542H95.8511V8.73082C95.8511 8.20005 95.6919 7.77634 95.3735 7.45966C95.0594 7.14299 94.6481 6.98465 94.1395 6.98465C93.7945 6.98465 93.4805 7.07386 93.1975 7.25227C92.9144 7.42621 92.6889 7.67375 92.5208 7.99489C92.3527 8.31156 92.2687 8.68175 92.2687 9.10547V15.3542H89.8672Z" fill="#2E765E"/>
<path d="M110.677 15.5549C109.656 15.5549 108.773 15.3408 108.03 14.9126C107.292 14.48 106.723 13.869 106.325 13.0795C105.927 12.2856 105.728 11.3512 105.728 10.2763C105.728 9.21921 105.927 8.29149 106.325 7.49311C106.728 6.69028 107.29 6.06586 108.01 5.61984C108.731 5.16936 109.578 4.94412 110.551 4.94412C111.179 4.94412 111.772 5.0467 112.329 5.25187C112.891 5.45258 113.386 5.76479 113.815 6.18851C114.249 6.61223 114.589 7.15191 114.837 7.80756C115.085 8.45875 115.208 9.23482 115.208 10.1358V10.8784H106.856V9.24597H112.906C112.902 8.78211 112.802 8.36954 112.608 8.00827C112.413 7.64253 112.141 7.35485 111.792 7.14522C111.447 6.93559 111.044 6.83078 110.584 6.83078C110.094 6.83078 109.662 6.9512 109.291 7.19205C108.919 7.42844 108.63 7.74066 108.422 8.12869C108.218 8.51227 108.114 8.93375 108.11 9.39315V10.8182C108.11 11.4158 108.218 11.9288 108.435 12.3569C108.652 12.7807 108.955 13.1063 109.344 13.3337C109.733 13.5567 110.189 13.6682 110.71 13.6682C111.06 13.6682 111.376 13.6192 111.659 13.5211C111.942 13.4185 112.188 13.2691 112.396 13.0728C112.603 12.8766 112.76 12.6335 112.867 12.3436L115.109 12.5978C114.967 13.1955 114.698 13.7173 114.3 14.1633C113.906 14.6049 113.402 14.9483 112.787 15.1936C112.172 15.4345 111.469 15.5549 110.677 15.5549Z" fill="#2E765E"/>
<path d="M125 0V8.5V17H120.204V15.1468H122.691V1.8599H120.204V0H125Z" fill="#8C8C8C"/>
</svg>
